<svg height="490.66667pt" viewBox="0 0 490.66667 490.66667" width="490.66667pt" xmlns="http://www.w3.org/2000/svg"><path d="m405.332031 245.332031c0 88.367188-71.632812 160-160 160-88.363281 0-160-71.632812-160-160 0-88.363281 71.636719-160 160-160 88.367188 0 160 71.636719 160 160zm0 0" fill="#ff9800"/><path d="m245.332031 405.332031c-88.234375 0-160-71.765625-160-160s71.765625-160 160-160 160 71.765625 160 160-71.765625 160-160 160zm0-298.664062c-76.457031 0-138.664062 62.207031-138.664062 138.664062 0 76.460938 62.207031 138.667969 138.664062 138.667969 76.460938 0 138.667969-62.207031 138.667969-138.667969 0-76.457031-62.207031-138.664062-138.667969-138.664062zm0 0"/><path d="m245.332031 64c-5.886719 0-10.664062-4.777344-10.664062-10.667969v-42.664062c0-5.890625 4.777343-10.667969 10.664062-10.667969 5.890625 0 10.667969 4.777344 10.667969 10.667969v42.664062c0 5.890625-4.777344 10.667969-10.667969 10.667969zm0 0"/><path d="m245.332031 490.667969c-5.886719 0-10.664062-4.78125-10.664062-10.667969v-42.667969c0-5.886719 4.777343-10.664062 10.664062-10.664062 5.890625 0 10.667969 4.777343 10.667969 10.664062v42.667969c0 5.886719-4.777344 10.667969-10.667969 10.667969zm0 0"/><path d="m149.332031 89.726562c-3.6875 0-7.273437-1.898437-9.257812-5.332031l-21.332031-36.949219c-2.921876-5.121093-1.175782-11.625 3.925781-14.570312 5.054687-2.964844 11.605469-1.214844 14.570312 3.902344l21.332031 36.949218c2.945313 5.101563 1.195313 11.605469-3.902343 14.570313-1.6875.960937-3.519531 1.429687-5.335938 1.429687zm0 0"/><path d="m362.667969 459.222656c-3.691407 0-7.277344-1.898437-9.261719-5.335937l-21.332031-36.949219c-2.945313-5.097656-1.195313-11.625 3.90625-14.570312 5.054687-2.964844 11.605469-1.214844 14.570312 3.90625l21.332031 36.949218c2.945313 5.097656 1.195313 11.625-3.902343 14.570313-1.664063.980469-3.5 1.429687-5.3125 1.429687zm0 0"/><path d="m79.039062 160c-1.8125 0-3.648437-.449219-5.3125-1.429688l-36.949218-21.332031c-5.117188-2.945312-6.867188-9.472656-3.902344-14.570312 2.945312-5.121094 9.449219-6.847657 14.570312-3.90625l36.949219 21.335937c5.097657 2.941406 6.847657 9.46875 3.902344 14.570313-1.980469 3.433593-5.566406 5.332031-9.257813 5.332031zm0 0"/><path d="m448.554688 373.332031c-1.8125 0-3.648438-.445312-5.332032-1.429687l-36.949218-21.332032c-5.101563-2.945312-6.847657-9.472656-3.90625-14.570312 2.945312-5.097656 9.472656-6.871094 14.570312-3.902344l36.949219 21.332032c5.101562 2.945312 6.847656 9.472656 3.90625 14.570312-1.964844 3.414062-5.546875 5.332031-9.238281 5.332031zm0 0"/><path d="m53.332031 256h-42.664062c-5.890625 0-10.667969-4.777344-10.667969-10.667969 0-5.886719 4.777344-10.664062 10.667969-10.664062h42.664062c5.890625 0 10.667969 4.777343 10.667969 10.664062 0 5.890625-4.777344 10.667969-10.667969 10.667969zm0 0"/><path d="m480 256h-42.667969c-5.886719 0-10.664062-4.777344-10.664062-10.667969 0-5.886719 4.777343-10.664062 10.664062-10.664062h42.667969c5.886719 0 10.667969 4.777343 10.667969 10.664062 0 5.890625-4.78125 10.667969-10.667969 10.667969zm0 0"/><path d="m42.113281 373.332031c-3.691406 0-7.277343-1.898437-9.261719-5.332031-2.941406-5.097656-1.191406-11.625 3.90625-14.570312l36.949219-21.332032c5.097657-2.96875 11.625-1.21875 14.589844 3.902344 2.945313 5.097656 1.195313 11.625-3.902344 14.570312l-36.949219 21.332032c-1.683593.984375-3.519531 1.429687-5.332031 1.429687zm0 0"/><path d="m411.605469 160c-3.691407 0-7.273438-1.921875-9.257813-5.332031-2.945312-5.101563-1.195312-11.628907 3.902344-14.570313l36.949219-21.335937c5.078125-2.941407 11.605469-1.195313 14.570312 3.90625 2.945313 5.097656 1.195313 11.625-3.902343 14.570312l-36.949219 21.332031c-1.664063.980469-3.5 1.429688-5.3125 1.429688zm0 0"/><path d="m128 459.222656c-1.8125 0-3.648438-.449218-5.332031-1.429687-5.101563-2.945313-6.847657-9.472657-3.90625-14.570313l21.335937-36.949218c2.941406-5.121094 9.46875-6.871094 14.570313-3.90625 5.097656 2.945312 6.847656 9.472656 3.902343 14.570312l-21.332031 36.949219c-1.984375 3.4375-5.570312 5.335937-9.238281 5.335937zm0 0"/><path d="m341.332031 89.726562c-1.8125 0-3.648437-.445312-5.332031-1.429687-5.097656-2.941406-6.847656-9.46875-3.902344-14.570313l21.332032-36.949218c2.945312-5.117188 9.472656-6.867188 14.570312-3.902344 5.097656 2.945312 6.847656 9.472656 3.902344 14.570312l-21.332032 36.949219c-1.984374 3.414063-5.566406 5.332031-9.238281 5.332031zm0 0"/></svg>