<svg height="512pt" viewBox="0 0 512 512" width="512pt" xmlns="http://www.w3.org/2000/svg"><path d="m377.535156 65.367188c-4.074218-1.964844-8.917968-1.089844-12.09375 2.089843-3.203125 3.199219-4.035156 8.0625-2.113281 12.117188 13.71875 28.90625 20.671875 59.5625 20.671875 91.09375 0 117.628906-95.703125 213.332031-213.332031 213.332031-31.53125 0-62.167969-6.953125-91.09375-20.652344-4.074219-1.941406-8.917969-1.085937-12.097657 2.09375-3.179687 3.175782-4.011718 8.019532-2.109374 12.09375 38.695312 81.6875 121.875 134.464844 211.964843 134.464844 129.386719 0 234.667969-105.28125 234.667969-234.667969 0-90.089843-52.777344-173.289062-134.464844-211.964843zm0 0" fill="#b0bec5"/><g fill="#ffc107"><path d="m106.667969 224c0 5.886719 4.777343 10.667969 10.664062 10.667969 5.890625 0 10.667969-4.78125 10.667969-10.667969 0-42.859375 5.097656-64.683594 18.21875-77.78125 13.097656-13.121094 34.902344-18.21875 77.78125-18.21875 5.886719 0 10.667969-4.777344 10.667969-10.667969 0-5.886719-4.78125-10.664062-10.667969-10.664062-42.878906 0-64.683594-5.101563-77.78125-18.21875-13.121094-13.101563-18.21875-34.925781-18.21875-77.78125 0-5.890625-4.777344-10.667969-10.667969-10.667969-5.886719 0-10.664062 4.777344-10.664062 10.667969 0 42.855469-5.101563 64.679687-18.21875 77.78125-13.101563 13.117187-34.902344 18.21875-77.78125 18.21875-5.890625 0-10.667969 4.777343-10.667969 10.664062 0 5.890625 4.777344 10.667969 10.667969 10.667969 42.878906 0 64.679687 5.097656 77.78125 18.21875 13.117187 13.097656 18.21875 34.921875 18.21875 77.78125zm0 0"/><path d="m202.667969 64c14.847656 0 22.78125 1.621094 26.578125 5.398438 3.800781 3.816406 5.421875 11.753906 5.421875 26.601562 0 5.886719 4.777343 10.667969 10.664062 10.667969 5.890625 0 10.667969-4.78125 10.667969-10.667969 0-14.847656 1.621094-22.785156 5.417969-26.601562 3.796875-3.777344 11.734375-5.398438 26.582031-5.398438 5.886719 0 10.667969-4.777344 10.667969-10.667969 0-5.886719-4.78125-10.664062-10.667969-10.664062-14.847656 0-22.785156-1.621094-26.582031-5.398438-3.796875-3.820312-5.417969-11.753906-5.417969-26.601562 0-5.890625-4.777344-10.667969-10.667969-10.667969-5.886719 0-10.664062 4.777344-10.664062 10.667969 0 14.847656-1.621094 22.78125-5.421875 26.601562-3.796875 3.777344-11.730469 5.398438-26.578125 5.398438-5.890625 0-10.667969 4.777343-10.667969 10.664062 0 5.890625 4.777344 10.667969 10.667969 10.667969zm0 0"/><path d="m222.996094 246.316406c-6.867188-6.871094-9.664063-19.523437-9.664063-43.648437 0-5.890625-4.777343-10.667969-10.664062-10.667969-5.890625 0-10.667969 4.777344-10.667969 10.667969 0 24.125-2.792969 36.777343-9.664062 43.648437-6.871094 6.867188-19.542969 9.683594-43.667969 9.683594-5.890625 0-10.667969 4.777344-10.667969 10.667969 0 5.886719 4.777344 10.664062 10.667969 10.664062 24.125 0 36.796875 2.796875 43.667969 9.6875 6.871093 6.890625 9.664062 19.519531 9.664062 43.648438 0 5.886719 4.777344 10.664062 10.667969 10.664062 5.886719 0 10.664062-4.777343 10.664062-10.664062 0-24.128907 2.796875-36.78125 9.664063-43.648438 6.871094-6.871093 19.542968-9.6875 43.671875-9.6875 5.886719 0 10.664062-4.777343 10.664062-10.664062 0-5.890625-4.777343-10.667969-10.664062-10.667969-24.128907 0-36.800781-2.792969-43.671875-9.683594zm0 0"/></g><path d="m277.332031 512c-90.089843 0-173.269531-52.777344-211.964843-134.441406-1.921876-4.074219-1.089844-8.917969 2.109374-12.097656 3.179688-3.179688 8.023438-4.03125 12.097657-2.089844 28.925781 13.675781 59.5625 20.628906 91.09375 20.628906 117.628906 0 213.332031-95.703125 213.332031-213.332031 0-31.53125-6.953125-62.1875-20.671875-91.09375-1.921875-4.074219-1.089844-8.917969 2.113281-12.117188 3.175782-3.179687 8.019532-4.054687 12.09375-2.089843 81.6875 38.675781 134.464844 121.875 134.464844 211.964843 0 129.386719-105.28125 234.667969-234.667969 234.667969zm-178.300781-117.996094c39.058594 59.519532 106.257812 96.664063 178.300781 96.664063 117.632813 0 213.335938-95.703125 213.335938-213.335938 0-72.042969-37.144531-139.242187-96.664063-178.300781 7.511719 23.167969 11.328125 47.144531 11.328125 71.636719 0 129.386719-105.277343 234.664062-234.664062 234.664062-24.46875 0-48.46875-3.796875-71.636719-11.328125zm0 0"/><path d="m117.332031 234.667969c-5.886719 0-10.664062-4.78125-10.664062-10.667969 0-42.859375-5.101563-64.683594-18.21875-77.78125-13.101563-13.121094-34.902344-18.21875-77.78125-18.21875-5.890625 0-10.667969-4.777344-10.667969-10.667969 0-5.886719 4.777344-10.664062 10.667969-10.664062 42.878906 0 64.679687-5.101563 77.78125-18.21875 13.117187-13.101563 18.21875-34.925781 18.21875-77.78125 0-5.890625 4.777343-10.667969 10.664062-10.667969 5.890625 0 10.667969 4.777344 10.667969 10.667969 0 42.855469 5.097656 64.679687 18.21875 77.78125 13.097656 13.117187 34.902344 18.21875 77.78125 18.21875 5.886719 0 10.667969 4.777343 10.667969 10.664062 0 5.890625-4.78125 10.667969-10.667969 10.667969-42.878906 0-64.683594 5.097656-77.78125 18.21875-13.121094 13.097656-18.21875 34.921875-18.21875 77.78125 0 5.886719-4.777344 10.667969-10.667969 10.667969zm-34.046875-117.335938c7.679688 3.457031 14.421875 7.957031 20.265625 13.78125 5.824219 5.847657 10.328125 12.609375 13.78125 20.269531 3.457031-7.660156 7.957031-14.421874 13.78125-20.269531 5.847657-5.824219 12.589844-10.324219 20.269531-13.78125-7.679687-3.453125-14.421874-7.957031-20.269531-13.78125-5.824219-5.84375-10.324219-12.605469-13.78125-20.265625-3.453125 7.660156-7.957031 14.421875-13.78125 20.265625-5.84375 5.824219-12.585937 10.328125-20.265625 13.78125zm0 0"/><path d="m245.332031 106.667969c-5.886719 0-10.664062-4.78125-10.664062-10.667969 0-14.847656-1.621094-22.785156-5.421875-26.601562-3.796875-3.777344-11.730469-5.398438-26.578125-5.398438-5.890625 0-10.667969-4.777344-10.667969-10.667969 0-5.886719 4.777344-10.664062 10.667969-10.664062 14.847656 0 22.78125-1.621094 26.578125-5.398438 3.800781-3.820312 5.421875-11.753906 5.421875-26.601562 0-5.890625 4.777343-10.667969 10.664062-10.667969 5.890625 0 10.667969 4.777344 10.667969 10.667969 0 14.847656 1.621094 22.78125 5.417969 26.601562 3.796875 3.777344 11.734375 5.398438 26.582031 5.398438 5.886719 0 10.667969 4.777343 10.667969 10.664062 0 5.890625-4.78125 10.667969-10.667969 10.667969-14.847656 0-22.785156 1.621094-26.582031 5.398438-3.796875 3.816406-5.417969 11.753906-5.417969 26.601562 0 5.886719-4.777344 10.667969-10.667969 10.667969zm-2.023437-53.335938c.339844.320313.679687.664063 1.023437.984375.359375.339844.679688.679688 1 1.042969.34375-.363281.664063-.703125 1.003907-1.042969.339843-.34375.683593-.664062 1.023437-.984375-.339844-.320312-.683594-.660156-1.023437-.980469-.363282-.339843-.683594-.703124-1.003907-1.042968-.339843.359375-.660156.703125-1 1.042968-.34375.339844-.683593.660157-1.023437.980469zm0 0"/><path d="m202.667969 341.332031c-5.890625 0-10.667969-4.777343-10.667969-10.664062 0-24.128907-2.792969-36.78125-9.664062-43.648438-6.871094-6.871093-19.542969-9.6875-43.667969-9.6875-5.890625 0-10.667969-4.777343-10.667969-10.664062 0-5.890625 4.777344-10.667969 10.667969-10.667969 24.125 0 36.796875-2.792969 43.667969-9.683594 6.871093-6.890625 9.664062-19.523437 9.664062-43.648437 0-5.890625 4.777344-10.667969 10.667969-10.667969 5.886719 0 10.664062 4.777344 10.664062 10.667969 0 24.125 2.796875 36.777343 9.664063 43.648437 6.871094 6.867188 19.542968 9.683594 43.671875 9.683594 5.886719 0 10.664062 4.777344 10.664062 10.667969 0 5.886719-4.777343 10.664062-10.664062 10.664062-24.128907 0-36.800781 2.796875-43.671875 9.6875-6.867188 6.890625-9.664063 19.519531-9.664063 43.648438 0 5.886719-4.777343 10.664062-10.664062 10.664062zm-11.648438-74.664062c2.28125 1.535156 4.414063 3.285156 6.398438 5.269531s3.710937 4.09375 5.25 6.378906c1.511719-2.261718 3.261719-4.394531 5.246093-6.378906 1.984376-1.984375 4.097657-3.734375 6.402344-5.269531-2.285156-1.539063-4.417968-3.285157-6.402344-5.269531-1.984374-1.984376-3.710937-4.097657-5.246093-6.359376-1.515625 2.261719-3.265625 4.394532-5.25 6.378907s-4.09375 3.710937-6.398438 5.25zm0 0"/></svg>