<svg height="512pt" viewBox="0 -43 512 512" width="512pt" xmlns="http://www.w3.org/2000/svg"><path d="m309.332031 64c-27.5625 0-77.714843 13.226562-94.933593 48.683594-1.597657 3.304687-1.386719 7.1875.554687 10.304687 1.941406 3.113281 5.378906 5.011719 9.046875 5.011719 55.722656 0 105.878906 33.214844 127.785156 84.609375 2.199219 5.097656 7.957032 7.699219 13.121094 5.949219 26.199219-8.554688 46.957031-6.335938 68.011719 2.667968 1.34375.574219 2.773437.851563 4.179687.851563 1.941406 0 3.882813-.53125 5.589844-1.578125 2.945312-1.789062 4.84375-4.925781 5.054688-8.382812 2.5625-38.890626-10.644532-75.882813-37.160157-104.191407-26.113281-27.925781-63.019531-43.925781-101.25-43.925781zm0 0" fill="#ffc107"/><path d="m441.324219 201.601562c-23.277344-9.921874-47.320313-12.867187-73.878907-5.996093-27.03125-54.335938-82.347656-88.9375-143.445312-88.9375-78.101562 0-144.640625 56.640625-157.609375 132.863281-39.425781 12.84375-66.390625 49.34375-66.390625 91.136719 0 52.925781 43.070312 96 96 96h298.667969c64.703125 0 117.332031-52.628907 117.332031-117.335938 0-46.761719-27.710938-89.023437-70.675781-107.730469zm0 0" fill="#bbdefb"/><path d="m437.332031 213.332031c-5.886719 0-10.664062-4.777343-10.664062-10.664062 0-64.707031-52.628907-117.335938-117.335938-117.335938-24.296875 0-64.148437 12.738281-75.730469 36.652344-2.5625 5.3125-8.960937 7.507813-14.253906 4.925781-5.308594-2.535156-7.507812-8.9375-4.949218-14.226562 17.195312-35.457032 67.351562-48.683594 94.933593-48.683594 76.460938 0 138.667969 62.207031 138.667969 138.667969 0 5.886719-4.777344 10.664062-10.667969 10.664062zm0 0"/><path d="m309.332031 42.667969c-5.886719 0-10.664062-4.78125-10.664062-10.667969v-21.332031c0-5.890625 4.777343-10.667969 10.664062-10.667969 5.890625 0 10.667969 4.777344 10.667969 10.667969v21.332031c0 5.886719-4.777344 10.667969-10.667969 10.667969zm0 0"/><path d="m188.652344 92.652344c-2.730469 0-5.464844-1.046875-7.554688-3.117188l-15.058594-15.082031c-4.160156-4.160156-4.160156-10.921875 0-15.082031 4.160157-4.160156 10.921876-4.160156 15.082032 0l15.082031 15.082031c4.160156 4.160156 4.160156 10.921875 0 15.082031-2.089844 2.070313-4.820313 3.117188-7.550781 3.117188zm0 0"/><path d="m501.332031 213.332031h-21.332031c-5.886719 0-10.667969-4.777343-10.667969-10.664062 0-5.890625 4.78125-10.667969 10.667969-10.667969h21.332031c5.890625 0 10.667969 4.777344 10.667969 10.667969 0 5.886719-4.777344 10.664062-10.667969 10.664062zm0 0"/><path d="m430.015625 92.652344c-2.730469 0-5.460937-1.046875-7.550781-3.117188-4.160156-4.160156-4.160156-10.921875 0-15.082031l15.082031-15.082031c4.160156-4.160156 10.921875-4.160156 15.082031 0s4.160156 10.921875 0 15.082031l-15.082031 15.082031c-2.070313 2.070313-4.800781 3.117188-7.53125 3.117188zm0 0"/><path d="m394.667969 426.667969h-298.667969c-52.929688 0-96-43.074219-96-96 0-41.898438 26.964844-78.378907 66.410156-91.117188 13.035156-76.242187 79.550782-132.882812 157.589844-132.882812 61.207031 0 116.480469 34.601562 143.402344 88.9375 9.449218-2.410157 18.433594-3.605469 27.265625-3.605469 64.703125 0 117.332031 52.628906 117.332031 117.332031 0 64.707031-52.628906 117.335938-117.332031 117.335938zm-170.667969-298.667969c-69.695312 0-128.789062 52.136719-137.449219 121.28125-.554687 4.414062-3.777343 8-8.066406 9.042969-33.664063 8.128906-57.152344 37.890625-57.152344 72.34375 0 41.171875 33.496094 74.664062 74.667969 74.664062h298.667969c52.925781 0 96-43.070312 96-96 0-52.925781-43.074219-96-96-96-9.34375 0-19.074219 1.707031-29.78125 5.25-5.335938 1.726563-10.988281-.898437-13.164063-5.972656-21.78125-51.394531-71.914062-84.609375-127.722656-84.609375zm0 0"/></svg>