<svg height="512pt" viewBox="0 -96 512 512" width="512pt" xmlns="http://www.w3.org/2000/svg"><path d="m394.667969 85.332031c-8.832031 0-17.816407 1.195313-27.265625 3.605469-26.921875-54.335938-82.195313-88.9375-143.402344-88.9375-78.039062 0-144.554688 56.640625-157.589844 132.886719-39.445312 12.734375-66.410156 49.214843-66.410156 91.113281 0 52.929688 43.070312 96 96 96h298.667969c64.703125 0 117.332031-52.628906 117.332031-117.332031 0-64.707031-52.628906-117.335938-117.332031-117.335938zm0 0" fill="#bbdefb"/><path d="m394.667969 320h-298.667969c-52.929688 0-96-43.070312-96-96 0-41.898438 26.964844-78.378906 66.410156-91.113281 13.035156-76.246094 79.550782-132.886719 157.589844-132.886719 61.207031 0 116.480469 34.601562 143.402344 88.9375 9.449218-2.410156 18.433594-3.605469 27.265625-3.605469 64.703125 0 117.332031 52.628907 117.332031 117.335938 0 64.703125-52.628906 117.332031-117.332031 117.332031zm-170.667969-298.667969c-69.695312 0-128.789062 52.140625-137.449219 121.28125-.554687 4.417969-3.777343 8-8.066406 9.046875-33.664063 8.125-57.152344 37.886719-57.152344 72.339844 0 41.171875 33.496094 74.667969 74.667969 74.667969h298.667969c52.925781 0 96-43.074219 96-96 0-52.929688-43.074219-96-96-96-9.34375 0-19.074219 1.707031-29.78125 5.246093-5.292969 1.707032-10.988281-.875-13.164063-5.972656-21.78125-51.390625-71.914062-84.609375-127.722656-84.609375zm0 0"/></svg>