<svg height="512pt" viewBox="0 -53 512 511" width="512pt" xmlns="http://www.w3.org/2000/svg"><path d="m362.667969.5c-17.472657 0-34.859375 3.15625-51.691407 9.367188-4.183593 1.554687-6.976562 5.542968-6.976562 10.003906 0 4.457031 2.773438 8.449218 6.976562 10.003906 50.046876 18.519531 83.691407 66.710938 83.691407 119.957031 0 6.378907-.46875 12.800781-1.410157 19.050781-.597656 3.992188 1.109376 7.957032 4.394532 10.285157l76.203125 54.035156c1.855469 1.324219 4.011719 1.964844 6.164062 1.964844 2.414063 0 4.824219-.8125 6.785157-2.433594 17.644531-14.550781 25.195312-39.339844 25.195312-82.902344 0-82.34375-66.988281-149.332031-149.332031-149.332031zm0 0" fill="#b0bec5"/><path d="m394.667969 171.167969c-8.832031 0-17.816407 1.195312-27.265625 3.605469-26.921875-54.335938-82.195313-88.941407-143.402344-88.941407-78.039062 0-144.554688 56.640625-157.589844 132.886719-39.445312 12.734375-66.410156 49.214844-66.410156 91.113281 0 52.929688 43.070312 96 96 96h298.667969c64.703125 0 117.332031-52.628906 117.332031-117.332031s-52.628906-117.332031-117.332031-117.332031zm0 0" fill="#bbdefb"/><path d="m480 235.167969c-3.09375 0-6.144531-1.324219-8.234375-3.882813-3.753906-4.546875-3.113281-11.265625 1.449219-15.019531 12.074218-9.941406 17.453125-30.421875 17.453125-66.433594 0-70.589843-57.410157-128-128-128-5.804688 0-11.605469.40625-17.367188 1.21875 43.199219 26.878907 70.699219 74.773438 70.699219 126.78125 0 7.445313-.554688 14.914063-1.644531 22.210938-.871094 5.824219-6.292969 9.789062-12.136719 8.957031-5.824219-.875-9.835938-6.3125-8.960938-12.136719.941407-6.230469 1.410157-12.652343 1.410157-19.03125 0-53.246093-33.644531-101.4375-83.691407-119.957031-4.183593-1.535156-6.976562-5.546875-6.976562-10.003906 0-4.460938 2.773438-8.449219 6.976562-10.003906 16.832032-6.210938 34.21875-9.367188 51.691407-9.367188 82.34375 0 149.332031 66.988281 149.332031 149.332031 0 43.5625-7.550781 68.351563-25.214844 82.902344-1.984375 1.621094-4.394531 2.433594-6.785156 2.433594zm0 0"/><path d="m394.667969 405.832031h-298.667969c-52.929688 0-96-43.070312-96-96 0-41.898437 26.964844-78.378906 66.410156-91.113281 13.035156-76.246094 79.550782-132.886719 157.589844-132.886719 61.207031 0 116.480469 34.605469 143.402344 88.941407 9.449218-2.433594 18.453125-3.605469 27.265625-3.605469 64.703125 0 117.332031 52.628906 117.332031 117.332031s-52.628906 117.332031-117.332031 117.332031zm-170.667969-298.664062c-69.695312 0-128.789062 52.136719-137.449219 121.277343-.554687 4.417969-3.777343 8-8.066406 9.046876-33.664063 8.128906-57.152344 37.886718-57.152344 72.339843 0 41.175781 33.496094 74.667969 74.667969 74.667969h298.667969c52.925781 0 96-43.070312 96-96s-43.074219-96-96-96c-9.34375 0-19.074219 1.707031-29.78125 5.246094-5.335938 1.730468-10.988281-.894532-13.164063-5.972656-21.78125-51.390626-71.914062-84.605469-127.722656-84.605469zm0 0"/></svg>