<svg height="512pt" viewBox="0 -64 512 512" width="512pt" xmlns="http://www.w3.org/2000/svg"><path d="m420.652344 78.292969c-20.480469-47.167969-68.203125-78.292969-121.34375-78.292969-50.136719 0-96 27.457031-116.886719 69.972656-1.109375 2.261719-1.386719 4.84375-.769531 7.273438l.855468 3.414062c1.40625 5.65625 7.039063 9.089844 12.800782 7.808594 8.828125-2.089844 18.492187-3.136719 28.691406-3.136719 55.703125 0 105.878906 33.21875 127.785156 84.609375 2.175782 5.097656 7.894532 7.703125 13.121094 5.953125 10.945312-3.5625 20.394531-5.226562 29.761719-5.226562 34.878906 0 67.027343 18.984375 83.902343 49.535156 1.410157 2.539063 3.796876 4.414063 6.636719 5.140625.894531.234375 1.789063.363281 2.707031.363281 1.964844 0 3.90625-.535156 5.609376-1.578125l2.773437-1.707031c1.539063-.960937 2.839844-2.304687 3.734375-3.90625.449219-.894531 11.96875-21.949219 11.96875-51.476563 0-48.875-40.980469-88.660156-91.347656-88.746093zm0 0" fill="#90caf9"/><path d="m497.238281 209.878906c-20.628906-37.355468-59.925781-60.546875-102.570312-60.546875-8.898438 0-17.730469 1.152344-27.222657 3.605469-27.050781-54.335938-82.347656-88.9375-143.445312-88.9375-11.839844 0-23.148438 1.238281-33.34375 3.648438-64.171875 13.546874-113.324219 65.003906-124.246094 129.214843-39.445312 12.84375-66.410156 49.34375-66.410156 91.136719 0 52.929688 43.070312 96 96 96h298.667969c64.679687 0 117.332031-52.652344 117.332031-117.332031 0-19.992188-5.121094-39.636719-14.761719-56.789063zm0 0" fill="#bbdefb"/><path d="m490.6875 223.980469c-1.75 0-3.519531-.429688-5.140625-1.324219-5.140625-2.835938-7.039063-9.324219-4.222656-14.484375.082031-.152344 9.34375-17.386719 9.34375-41.066406 0-37.25-31.488281-67.5625-70.167969-67.5625-.980469 0-1.898438.148437-2.835938.277343l-3.113281.359376c-4.886719.300781-9.304687-2.496094-10.925781-7.039063-15.402344-42.941406-57.363281-71.808594-104.402344-71.808594-41.921875 0-80.257812 22.785157-97.664062 58.050781-2.625 5.308594-9.046875 7.445313-14.292969 4.839844-5.269531-2.601562-7.425781-9-4.824219-14.269531 20.972656-42.496094 66.816406-69.953125 116.78125-69.953125 53.160156 0 100.925782 31.105469 121.429688 78.230469 50.386718.0625 91.347656 39.933593 91.347656 88.875 0 29.417969-11.519531 50.515625-12.011719 51.390625-1.941406 3.519531-5.566406 5.484375-9.300781 5.484375zm0 0"/><path d="m394.667969 384h-298.667969c-52.929688 0-96-43.070312-96-96 0-41.898438 26.964844-78.378906 66.410156-91.113281 13.035156-76.246094 79.550782-132.886719 157.589844-132.886719 61.207031 0 116.480469 34.601562 143.402344 88.9375 9.449218-2.410156 18.453125-3.605469 27.265625-3.605469 64.679687 0 117.332031 52.628907 117.332031 117.335938 0 64.679687-52.652344 117.332031-117.332031 117.332031zm-170.667969-298.667969c-69.695312 0-128.789062 52.140625-137.449219 121.28125-.535156 4.417969-3.777343 8-8.085937 9.046875-33.621094 8.125-57.132813 37.886719-57.132813 72.339844 0 41.171875 33.496094 74.667969 74.667969 74.667969h298.667969c52.925781 0 96-43.074219 96-96 0-52.929688-43.074219-96-96-96-9.324219 0-19.074219 1.707031-29.78125 5.246093-5.292969 1.75-10.988281-.875-13.144531-5.972656-21.800782-51.390625-71.933594-84.609375-127.742188-84.609375zm0 0"/></svg>