<svg height="512pt" viewBox="0 -53 512 511" width="512pt" xmlns="http://www.w3.org/2000/svg"><path d="m394.667969 85.832031c-8.789063 0-17.792969 1.195313-27.265625 3.628907-26.921875-54.359376-82.195313-88.960938-143.402344-88.960938-78.039062 0-144.554688 56.640625-157.589844 132.886719-39.445312 12.734375-66.410156 49.214843-66.410156 91.113281 0 52.929688 43.070312 96 96 96h298.667969c64.679687 0 117.332031-52.652344 117.332031-117.332031 0-64.683594-52.652344-117.335938-117.332031-117.335938zm0 0" fill="#bbdefb"/><path d="m96 405.832031c-1.878906 0-3.777344-.46875-5.484375-1.511719-5.054687-3.03125-6.695313-9.582031-3.667969-14.636718l64-106.667969c3.050782-5.054687 9.644532-6.695313 14.636719-3.667969 5.054687 3.03125 6.695313 9.578125 3.667969 14.636719l-64 106.664063c-2.003906 3.328124-5.546875 5.183593-9.152344 5.183593zm0 0"/><path d="m160 405.832031c-1.878906 0-3.777344-.46875-5.484375-1.511719-5.054687-3.03125-6.695313-9.582031-3.667969-14.636718l64-106.667969c3.074219-5.054687 9.621094-6.695313 14.636719-3.667969 5.054687 3.03125 6.695313 9.578125 3.667969 14.636719l-64 106.664063c-2.003906 3.328124-5.546875 5.183593-9.152344 5.183593zm0 0"/><path d="m224 405.832031c-1.878906 0-3.777344-.46875-5.484375-1.511719-5.054687-3.03125-6.695313-9.582031-3.667969-14.636718l64-106.667969c3.050782-5.054687 9.644532-6.695313 14.636719-3.667969 5.054687 3.03125 6.695313 9.578125 3.667969 14.636719l-64 106.664063c-2.003906 3.328124-5.546875 5.183593-9.152344 5.183593zm0 0"/><path d="m288 405.832031c-1.878906 0-3.777344-.46875-5.484375-1.511719-5.054687-3.03125-6.695313-9.582031-3.667969-14.636718l64-106.667969c3.050782-5.054687 9.621094-6.695313 14.636719-3.667969 5.054687 3.03125 6.695313 9.578125 3.667969 14.636719l-64 106.664063c-2.003906 3.328124-5.546875 5.183593-9.152344 5.183593zm0 0"/><path d="m394.667969 320.5c-5.890625 0-10.667969-4.777344-10.667969-10.667969 0-5.886719 4.777344-10.664062 10.667969-10.664062 52.925781 0 96-43.074219 96-96 0-52.929688-43.074219-96-96-96-9.300781 0-19.050781 1.707031-29.804688 5.246093-5.160156 1.6875-10.964843-.875-13.121093-5.972656-21.800782-51.390625-71.933594-84.609375-127.742188-84.609375-69.695312 0-128.789062 52.140625-137.449219 121.300781-.554687 4.398438-3.777343 8-8.085937 9.027344-33.621094 8.125-57.132813 37.886719-57.132813 72.339844 0 41.171875 33.496094 74.667969 74.667969 74.667969 5.886719 0 10.667969 4.777343 10.667969 10.664062 0 5.890625-4.78125 10.667969-10.667969 10.667969-52.929688 0-96-43.070312-96-96 0-41.898438 26.964844-78.378906 66.410156-91.113281 13.035156-76.246094 79.550782-132.886719 157.589844-132.886719 61.207031 0 116.480469 34.601562 143.402344 88.960938 9.472656-2.433594 18.476562-3.628907 27.265625-3.628907 64.679687 0 117.332031 52.652344 117.332031 117.335938 0 64.679687-52.652344 117.332031-117.332031 117.332031zm0 0"/></svg>