<svg height="512pt" viewBox="0 0 512 512" width="512pt" xmlns="http://www.w3.org/2000/svg"><path d="m309.332031 64c-27.5625 0-77.714843 13.226562-94.933593 48.683594-1.597657 3.304687-1.386719 7.1875.554687 10.304687 1.941406 3.113281 5.378906 5.011719 9.046875 5.011719 55.703125 0 105.878906 33.214844 127.785156 84.609375 2.175782 5.097656 7.851563 7.699219 13.121094 5.949219 26.21875-8.53125 46.933594-6.3125 68.011719 2.667968 1.34375.574219 2.773437.851563 4.179687.851563 1.941406 0 3.882813-.53125 5.589844-1.578125 2.964844-1.789062 4.84375-4.925781 5.054688-8.382812 2.539062-38.890626-10.644532-75.882813-37.160157-104.191407-26.132812-27.925781-63.019531-43.925781-101.25-43.925781zm0 0" fill="#ffc107"/><path d="m441.324219 201.601562c-23.277344-9.941406-47.296875-12.886718-73.878907-5.996093-27.050781-54.335938-82.347656-88.9375-143.445312-88.9375-78.101562 0-144.617188 56.640625-157.609375 132.863281-39.425781 12.84375-66.390625 49.34375-66.390625 91.136719 0 52.925781 43.070312 96 96 96h298.667969c64.679687 0 117.332031-52.628907 117.332031-117.335938 0-46.761719-27.734375-89.023437-70.675781-107.730469zm0 0" fill="#bbdefb"/><path d="m334.039062 277.886719-64-21.332031c-3.117187-1.066407-6.445312-.597657-9.132812 1.128906-2.707031 1.75-4.5 4.609375-4.863281 7.808594l-8.980469 80.789062-28.972656-14.484375c-2.984375-1.492187-6.484375-1.492187-9.449219-.042969-2.988281 1.453125-5.121094 4.226563-5.78125 7.488282l-32 160c-1.003906 4.992187 1.664063 10.003906 6.378906 11.945312 1.34375.554688 2.730469.8125 4.09375.8125 3.480469 0 6.847657-1.707031 8.875-4.757812l58.773438-88.171876 34.242187 17.132813c2.792969 1.386719 6.078125 1.515625 8.957032.253906 2.902343-1.234375 5.078124-3.667969 5.996093-6.65625l42.667969-138.664062c1.726562-5.546875-1.300781-11.433594-6.804688-13.25zm0 0" fill="#ffc107"/><path d="m138.667969 512c-1.601563 0-3.222657-.363281-4.78125-1.128906-5.269531-2.648438-7.402344-9.046875-4.777344-14.316406l21.332031-42.667969c2.648438-5.269531 9.066406-7.359375 14.316406-4.777344 5.269532 2.644531 7.402344 9.046875 4.777344 14.316406l-21.332031 42.664063c-1.878906 3.753906-5.632813 5.910156-9.535156 5.910156zm0 0"/><path d="m352 512c-1.601562 0-3.222656-.363281-4.777344-1.128906-5.269531-2.648438-7.402344-9.046875-4.78125-14.316406l21.335938-42.667969c2.664062-5.269531 9.042968-7.359375 14.3125-4.777344 5.269531 2.644531 7.402344 9.046875 4.78125 14.316406l-21.335938 42.664063c-1.875 3.753906-5.632812 5.910156-9.535156 5.910156zm0 0"/><path d="m138.667969 426.667969c-1.601563 0-3.222657-.363281-4.78125-1.132813-5.269531-2.644531-7.402344-9.042968-4.777344-14.3125l21.332031-42.667968c2.648438-5.269532 9.066406-7.382813 14.316406-4.777344 5.269532 2.644531 7.402344 9.042968 4.777344 14.3125l-21.332031 42.667968c-1.878906 3.753907-5.632813 5.910157-9.535156 5.910157zm0 0"/><path d="m352 426.667969c-1.601562 0-3.222656-.363281-4.777344-1.132813-5.269531-2.644531-7.402344-9.042968-4.78125-14.3125l21.335938-42.667968c2.664062-5.269532 9.042968-7.382813 14.3125-4.777344 5.269531 2.644531 7.402344 9.042968 4.78125 14.3125l-21.335938 42.667968c-1.875 3.753907-5.632812 5.910157-9.535156 5.910157zm0 0"/><path d="m181.332031 512c-1.363281 0-2.75-.257812-4.074219-.8125-4.714843-1.941406-7.378906-6.953125-6.378906-11.945312l32-160c.640625-3.261719 2.796875-6.035157 5.78125-7.488282 2.988282-1.449218 6.488282-1.449218 9.453125.042969l28.96875 14.484375 8.980469-80.789062c.363281-3.199219 2.15625-6.078126 4.867188-7.808594 2.6875-1.726563 6.015624-2.195313 9.128906-1.128906l64 21.332031c5.503906 1.816406 8.511718 7.703125 6.804687 13.25l-42.664062 138.664062c-.917969 3.011719-3.117188 5.441407-5.996094 6.65625-2.878906 1.261719-6.164063 1.132813-8.960937-.253906l-34.238282-17.132813-58.773437 88.171876c-2.050781 3.050781-5.417969 4.757812-8.898438 4.757812zm39.722657-154.878906-18.6875 93.4375 34.089843-51.132813c3.007813-4.503906 8.898438-6.019531 13.65625-3.628906l31.402344 15.703125 35.925781-116.671875-41.601562-13.867187-9.214844 82.878906c-.40625 3.476562-2.433594 6.527344-5.503906 8.191406-3.09375 1.664062-6.742188 1.730469-9.878906.171875zm0 0"/><path d="m394.667969 426.667969c-5.890625 0-10.667969-4.78125-10.667969-10.667969s4.777344-10.667969 10.667969-10.667969c52.925781 0 96-43.070312 96-96 0-52.925781-43.074219-96-96-96-9.324219 0-19.074219 1.707031-29.78125 5.25-5.292969 1.75-10.988281-.875-13.144531-5.972656-21.800782-51.394531-71.933594-84.609375-127.742188-84.609375-69.695312 0-128.789062 52.136719-137.449219 121.28125-.535156 4.414062-3.777343 8-8.085937 9.042969-33.621094 8.128906-57.132813 37.890625-57.132813 72.34375 0 41.171875 33.496094 74.664062 74.667969 74.664062 5.886719 0 10.667969 4.78125 10.667969 10.667969s-4.78125 10.667969-10.667969 10.667969c-52.929688 0-96-43.074219-96-96 0-41.898438 26.964844-78.378907 66.410156-91.117188 13.035156-76.242187 79.550782-132.882812 157.589844-132.882812 61.207031 0 116.480469 34.601562 143.402344 88.9375 9.449218-2.410157 18.453125-3.605469 27.265625-3.605469 64.679687 0 117.332031 52.628906 117.332031 117.332031 0 64.707031-52.652344 117.335938-117.332031 117.335938zm0 0"/><path d="m437.332031 213.332031c-5.886719 0-10.664062-4.777343-10.664062-10.664062 0-64.707031-52.652344-117.335938-117.335938-117.335938-24.296875 0-64.125 12.738281-75.730469 36.652344-2.582031 5.3125-8.960937 7.507813-14.253906 4.925781-5.308594-2.558594-7.507812-8.9375-4.949218-14.226562 17.195312-35.457032 67.351562-48.683594 94.933593-48.683594 76.460938 0 138.667969 62.207031 138.667969 138.667969 0 5.886719-4.777344 10.664062-10.667969 10.664062zm0 0"/><path d="m309.332031 42.667969c-5.886719 0-10.664062-4.78125-10.664062-10.667969v-21.332031c0-5.890625 4.777343-10.667969 10.664062-10.667969 5.890625 0 10.667969 4.777344 10.667969 10.667969v21.332031c0 5.886719-4.777344 10.667969-10.667969 10.667969zm0 0"/><path d="m188.652344 92.652344c-2.730469 0-5.464844-1.046875-7.554688-3.117188l-15.082031-15.082031c-4.160156-4.160156-4.160156-10.921875 0-15.082031s10.921875-4.160156 15.082031 0l15.082032 15.082031c4.160156 4.160156 4.160156 10.921875 0 15.082031-2.066407 2.070313-4.796876 3.117188-7.527344 3.117188zm0 0"/><path d="m501.332031 213.332031h-21.332031c-5.886719 0-10.667969-4.777343-10.667969-10.664062 0-5.890625 4.78125-10.667969 10.667969-10.667969h21.332031c5.890625 0 10.667969 4.777344 10.667969 10.667969 0 5.886719-4.777344 10.664062-10.667969 10.664062zm0 0"/><path d="m430.015625 92.652344c-2.730469 0-5.460937-1.046875-7.550781-3.117188-4.160156-4.160156-4.160156-10.921875 0-15.082031l15.082031-15.082031c4.160156-4.160156 10.921875-4.160156 15.082031 0s4.160156 10.921875 0 15.082031l-15.082031 15.082031c-2.070313 2.070313-4.800781 3.117188-7.53125 3.117188zm0 0"/><path d="m245.332031 512c-1.597656 0-3.21875-.363281-4.777343-1.128906-5.269532-2.648438-7.402344-9.046875-4.777344-14.316406l21.332031-42.667969c2.644531-5.269531 9.046875-7.359375 14.316406-4.777344 5.265625 2.644531 7.402344 9.046875 4.777344 14.316406l-21.332031 42.664063c-1.878906 3.753906-5.632813 5.910156-9.539063 5.910156zm0 0"/></svg>