<svg height="512pt" viewBox="0 -11 512 512" width="512pt" xmlns="http://www.w3.org/2000/svg"><path d="m362.667969 0c-17.453125 0-34.859375 3.15625-51.691407 9.367188-4.183593 1.554687-6.976562 5.542968-6.976562 10.003906 0 4.457031 2.773438 8.449218 6.953125 10.003906 50.070313 18.519531 83.714844 66.710938 83.714844 119.957031 0 6.378907-.46875 12.78125-1.386719 19.050781-.597656 3.992188 1.085938 7.957032 4.371094 10.261719l76.183594 54.039063c1.855468 1.320312 4.007812 1.960937 6.164062 1.960937 2.410156 0 4.820312-.808593 6.785156-2.429687 17.664063-14.550782 25.214844-39.339844 25.214844-82.882813 0-82.34375-67.007812-149.332031-149.332031-149.332031zm0 0" fill="#b0bec5"/><path d="m394.667969 170.667969c-8.8125 0-17.816407 1.195312-27.265625 3.605469-26.921875-54.335938-82.195313-88.941407-143.402344-88.941407-78.039062 0-144.554688 56.640625-157.589844 132.886719-39.445312 12.734375-66.410156 49.214844-66.410156 91.113281 0 52.929688 43.070312 96 96 96h298.667969c64.679687 0 117.332031-52.628906 117.332031-117.332031s-52.652344-117.332031-117.332031-117.332031zm0 0" fill="#bbdefb"/><path d="m334.039062 256.554688-64-21.332032c-3.117187-1.046875-6.445312-.597656-9.132812 1.128906-2.707031 1.75-4.5 4.609376-4.863281 7.808594l-8.980469 80.789063-28.972656-14.484375c-2.984375-1.496094-6.484375-1.496094-9.449219-.042969-2.964844 1.449219-5.121094 4.222656-5.78125 7.488281l-32 160c-1.003906 4.992188 1.664063 10.003906 6.378906 11.945313 1.34375.554687 2.730469.8125 4.09375.8125 3.480469 0 6.847657-1.707031 8.875-4.757813l58.773438-88.171875 34.242187 17.132813c2.792969 1.386718 6.058594 1.535156 8.957032.253906 2.902343-1.238281 5.078124-3.667969 5.996093-6.65625l42.667969-138.667969c1.726562-5.542969-1.300781-11.433593-6.804688-13.246093zm0 0" fill="#ffc107"/><path d="m138.667969 490.667969c-1.601563 0-3.222657-.363281-4.78125-1.132813-5.269531-2.644531-7.402344-9.042968-4.777344-14.3125l21.332031-42.667968c2.648438-5.289063 9.046875-7.359376 14.316406-4.777344 5.269532 2.644531 7.402344 9.042968 4.777344 14.3125l-21.332031 42.667968c-1.878906 3.753907-5.632813 5.910157-9.535156 5.910157zm0 0"/><path d="m352 490.667969c-1.601562 0-3.222656-.363281-4.777344-1.132813-5.269531-2.644531-7.402344-9.042968-4.78125-14.3125l21.335938-42.667968c2.644531-5.289063 9.066406-7.359376 14.3125-4.777344 5.269531 2.644531 7.402344 9.042968 4.78125 14.3125l-21.335938 42.667968c-1.875 3.753907-5.632812 5.910157-9.535156 5.910157zm0 0"/><path d="m138.667969 405.332031c-1.601563 0-3.222657-.363281-4.78125-1.128906-5.269531-2.644531-7.402344-9.046875-4.777344-14.316406l21.332031-42.664063c2.648438-5.269531 9.046875-7.359375 14.316406-4.78125 5.269532 2.648438 7.402344 9.046875 4.777344 14.316406l-21.332031 42.667969c-1.878906 3.753907-5.632813 5.90625-9.535156 5.90625zm0 0"/><path d="m352 405.332031c-1.601562 0-3.222656-.363281-4.777344-1.128906-5.269531-2.644531-7.402344-9.046875-4.78125-14.316406l21.335938-42.664063c2.644531-5.269531 9.066406-7.359375 14.3125-4.78125 5.269531 2.648438 7.402344 9.046875 4.78125 14.316406l-21.335938 42.667969c-1.875 3.753907-5.632812 5.90625-9.535156 5.90625zm0 0"/><path d="m181.332031 490.667969c-1.363281 0-2.75-.257813-4.074219-.8125-4.714843-1.941407-7.378906-6.953125-6.378906-11.945313l32-160c.640625-3.265625 2.796875-6.039062 5.78125-7.488281 2.988282-1.453125 6.488282-1.453125 9.453125.042969l28.96875 14.484375 8.980469-80.789063c.363281-3.199218 2.15625-6.082031 4.867188-7.808594 2.6875-1.726562 6.015624-2.175781 9.128906-1.128906l64 21.332032c5.503906 1.8125 8.511718 7.703124 6.804687 13.246093l-42.664062 138.667969c-.917969 3.007812-3.117188 5.441406-5.996094 6.65625-2.902344 1.28125-6.164063 1.132812-8.960937-.253906l-34.238282-17.132813-58.773437 88.171875c-2.050781 3.050782-5.417969 4.757813-8.898438 4.757813zm39.722657-154.882813-18.6875 93.441406 34.089843-51.136718c3.007813-4.5 8.855469-6.015625 13.65625-3.625l31.402344 15.699218 35.925781-116.671874-41.601562-13.867188-9.214844 82.882812c-.40625 3.476563-2.433594 6.527344-5.503906 8.191407-3.117188 1.640625-6.742188 1.726562-9.878906.171875zm0 0"/><path d="m480 234.667969c-3.070312 0-6.121094-1.324219-8.234375-3.882813-3.753906-4.546875-3.113281-11.265625 1.429687-15.019531 12.09375-9.941406 17.472657-30.421875 17.472657-66.433594 0-70.589843-57.410157-128-128-128-5.804688 0-11.605469.40625-17.367188 1.21875 43.199219 26.878907 70.699219 74.773438 70.699219 126.78125 0 7.425781-.535156 14.890625-1.644531 22.210938-.851563 5.824219-6.398438 9.769531-12.09375 8.980469-5.824219-.875-9.855469-6.292969-8.980469-12.117188.917969-6.292969 1.386719-12.695312 1.386719-19.074219 0-53.246093-33.644531-101.4375-83.714844-119.957031-4.179687-1.535156-6.953125-5.523438-6.953125-10.003906 0-4.480469 2.792969-8.449219 6.976562-10.003906 16.832032-6.210938 34.238282-9.367188 51.691407-9.367188 82.324219 0 149.332031 66.988281 149.332031 149.332031 0 43.542969-7.550781 68.332031-25.214844 82.902344-1.984375 1.621094-4.394531 2.433594-6.785156 2.433594zm0 0"/><path d="m394.667969 405.332031c-5.890625 0-10.667969-4.777343-10.667969-10.664062 0-5.890625 4.777344-10.667969 10.667969-10.667969 52.925781 0 96-43.070312 96-96s-43.074219-96-96-96c-9.324219 0-19.074219 1.707031-29.78125 5.246094-5.269531 1.773437-10.988281-.871094-13.144531-5.972656-21.800782-51.390626-71.933594-84.605469-127.742188-84.605469-69.695312 0-128.789062 52.136719-137.449219 121.277343-.535156 4.417969-3.777343 8-8.085937 9.046876-33.621094 8.128906-57.132813 37.886718-57.132813 72.339843 0 41.175781 33.496094 74.667969 74.667969 74.667969 5.886719 0 10.667969 4.777344 10.667969 10.667969 0 5.886719-4.78125 10.664062-10.667969 10.664062-52.929688 0-96-43.070312-96-96 0-41.898437 26.964844-78.378906 66.410156-91.113281 13.035156-76.246094 79.550782-132.886719 157.589844-132.886719 61.207031 0 116.480469 34.605469 143.402344 88.941407 9.449218-2.410157 18.453125-3.605469 27.265625-3.605469 64.679687 0 117.332031 52.628906 117.332031 117.332031s-52.652344 117.332031-117.332031 117.332031zm0 0"/><path d="m245.332031 490.667969c-1.597656 0-3.21875-.363281-4.777343-1.132813-5.269532-2.644531-7.402344-9.042968-4.777344-14.3125l21.332031-42.667968c2.667969-5.289063 9.046875-7.359376 14.316406-4.777344 5.265625 2.644531 7.402344 9.042968 4.777344 14.3125l-21.332031 42.667968c-1.878906 3.753907-5.632813 5.910157-9.539063 5.910157zm0 0"/></svg>