<svg height="512pt" viewBox="0 -11 512 512" width="512pt" xmlns="http://www.w3.org/2000/svg"><path d="m362.667969 0c-17.472657 0-34.859375 3.15625-51.691407 9.367188-4.183593 1.554687-6.976562 5.542968-6.976562 10.003906 0 4.457031 2.773438 8.449218 6.976562 10.003906 50.046876 18.519531 83.691407 66.710938 83.691407 119.957031 0 6.378907-.46875 12.800781-1.410157 19.050781-.597656 3.992188 1.109376 7.957032 4.394532 10.285157l76.203125 54.035156c1.855469 1.324219 4.011719 1.964844 6.164062 1.964844 2.414063 0 4.824219-.8125 6.785157-2.433594 17.644531-14.550781 25.195312-39.339844 25.195312-82.902344 0-82.34375-66.988281-149.332031-149.332031-149.332031zm0 0" fill="#b0bec5"/><path d="m394.667969 170.667969c-8.832031 0-17.816407 1.195312-27.265625 3.605469-26.921875-54.335938-82.195313-88.941407-143.402344-88.941407-78.039062 0-144.554688 56.640625-157.589844 132.886719-39.445312 12.734375-66.410156 49.214844-66.410156 91.113281 0 52.929688 43.070312 96 96 96h298.667969c64.703125 0 117.332031-52.628906 117.332031-117.332031s-52.628906-117.332031-117.332031-117.332031zm0 0" fill="#bbdefb"/><path d="m480 234.667969c-3.09375 0-6.144531-1.324219-8.234375-3.882813-3.753906-4.546875-3.113281-11.265625 1.449219-15.019531 12.074218-9.941406 17.453125-30.421875 17.453125-66.433594 0-70.589843-57.410157-128-128-128-5.804688 0-11.605469.40625-17.367188 1.21875 43.199219 26.878907 70.699219 74.773438 70.699219 126.78125 0 7.445313-.554688 14.914063-1.644531 22.210938-.871094 5.824219-6.226563 9.789062-12.136719 8.957031-5.824219-.875-9.835938-6.3125-8.960938-12.136719.941407-6.230469 1.410157-12.652343 1.410157-19.03125 0-53.246093-33.644531-101.4375-83.691407-119.957031-4.183593-1.535156-6.976562-5.546875-6.976562-10.003906 0-4.460938 2.773438-8.449219 6.976562-10.003906 16.832032-6.210938 34.21875-9.367188 51.691407-9.367188 82.34375 0 149.332031 66.988281 149.332031 149.332031 0 43.5625-7.550781 68.351563-25.214844 82.902344-1.984375 1.621094-4.394531 2.433594-6.785156 2.433594zm0 0"/><path d="m117.332031 490.667969c-5.886719 0-10.664062-4.78125-10.664062-10.667969v-42.667969c0-5.886719 4.777343-10.664062 10.664062-10.664062 5.890625 0 10.667969 4.777343 10.667969 10.664062v42.667969c0 5.886719-4.777344 10.667969-10.667969 10.667969zm0 0"/><path d="m135.808594 480c-1.8125 0-3.648438-.449219-5.332032-1.429688l-36.953124-21.332031c-5.097657-2.945312-6.847657-9.472656-3.902344-14.570312 2.945312-5.101563 9.472656-6.871094 14.570312-3.90625l36.949219 21.335937c5.097656 2.941406 6.847656 9.46875 3.90625 14.570313-1.964844 3.410156-5.546875 5.332031-9.238281 5.332031zm0 0"/><path d="m98.859375 480c-3.691406 0-7.273437-1.921875-9.257813-5.332031-2.945312-5.101563-1.195312-11.628907 3.902344-14.570313l36.949219-21.335937c5.054687-2.964844 11.605469-1.195313 14.570313 3.90625 2.945312 5.097656 1.195312 11.625-3.902344 14.570312l-36.949219 21.332031c-1.664063.980469-3.5 1.429688-5.3125 1.429688zm0 0"/><path d="m202.667969 490.667969c-5.890625 0-10.667969-4.78125-10.667969-10.667969v-42.667969c0-5.886719 4.777344-10.664062 10.667969-10.664062 5.886719 0 10.664062 4.777343 10.664062 10.664062v42.667969c0 5.886719-4.777343 10.667969-10.664062 10.667969zm0 0"/><path d="m221.140625 480c-1.8125 0-3.648437-.449219-5.332031-1.429688l-36.949219-21.332031c-5.097656-2.945312-6.847656-9.472656-3.90625-14.570312 2.96875-5.101563 9.453125-6.871094 14.570313-3.90625l36.953124 21.335937c5.097657 2.941406 6.847657 9.46875 3.902344 14.570313-1.964844 3.410156-5.546875 5.332031-9.238281 5.332031zm0 0"/><path d="m184.191406 480c-3.691406 0-7.273437-1.921875-9.257812-5.332031-2.945313-5.101563-1.195313-11.628907 3.902344-14.570313l36.949218-21.335937c5.078125-2.964844 11.628906-1.195313 14.570313 3.90625 2.945312 5.097656 1.195312 11.625-3.902344 14.570312l-36.949219 21.332031c-1.664062.980469-3.5 1.429688-5.3125 1.429688zm0 0"/><path d="m288 490.667969c-5.886719 0-10.667969-4.78125-10.667969-10.667969v-42.667969c0-5.886719 4.78125-10.664062 10.667969-10.664062s10.667969 4.777343 10.667969 10.664062v42.667969c0 5.886719-4.78125 10.667969-10.667969 10.667969zm0 0"/><path d="m306.476562 480c-1.816406 0-3.648437-.449219-5.335937-1.429688l-36.949219-21.332031c-5.097656-2.945312-6.847656-9.472656-3.902344-14.570312 2.941407-5.101563 9.472657-6.871094 14.570313-3.90625l36.949219 21.335937c5.097656 2.941406 6.847656 9.46875 3.902344 14.570313-1.960938 3.410156-5.546876 5.332031-9.234376 5.332031zm0 0"/><path d="m269.523438 480c-3.6875 0-7.273438-1.921875-9.257813-5.332031-2.941406-5.101563-1.195313-11.628907 3.90625-14.570313l36.949219-21.335937c5.078125-2.964844 11.605468-1.195313 14.570312 3.90625 2.941406 5.097656 1.195313 11.625-3.90625 14.570312l-36.949218 21.332031c-1.664063.980469-3.496094 1.429688-5.3125 1.429688zm0 0"/><path d="m160 426.667969c-5.886719 0-10.667969-4.78125-10.667969-10.667969v-42.667969c0-5.886719 4.78125-10.664062 10.667969-10.664062s10.667969 4.777343 10.667969 10.664062v42.667969c0 5.886719-4.78125 10.667969-10.667969 10.667969zm0 0"/><path d="m178.476562 416c-1.816406 0-3.648437-.449219-5.335937-1.429688l-36.949219-21.332031c-5.097656-2.945312-6.847656-9.472656-3.902344-14.570312 2.941407-5.121094 9.449219-6.871094 14.570313-3.90625l36.949219 21.335937c5.097656 2.941406 6.847656 9.46875 3.902344 14.570313-1.960938 3.410156-5.546876 5.332031-9.234376 5.332031zm0 0"/><path d="m141.523438 416c-3.6875 0-7.273438-1.921875-9.257813-5.332031-2.941406-5.101563-1.195313-11.628907 3.90625-14.570313l36.949219-21.335937c5.078125-2.964844 11.625-1.214844 14.570312 3.90625 2.941406 5.097656 1.195313 11.625-3.90625 14.570312l-36.949218 21.332031c-1.664063.980469-3.496094 1.429688-5.3125 1.429688zm0 0"/><path d="m245.332031 426.667969c-5.886719 0-10.664062-4.78125-10.664062-10.667969v-42.667969c0-5.886719 4.777343-10.664062 10.664062-10.664062 5.890625 0 10.667969 4.777343 10.667969 10.664062v42.667969c0 5.886719-4.777344 10.667969-10.667969 10.667969zm0 0"/><path d="m263.808594 416c-1.8125 0-3.648438-.449219-5.332032-1.429688l-36.953124-21.332031c-5.097657-2.945312-6.847657-9.472656-3.902344-14.570312 2.945312-5.121094 9.472656-6.871094 14.570312-3.90625l36.949219 21.335937c5.097656 2.941406 6.847656 9.46875 3.90625 14.570313-1.964844 3.410156-5.546875 5.332031-9.238281 5.332031zm0 0"/><path d="m226.859375 416c-3.691406 0-7.273437-1.921875-9.257813-5.332031-2.945312-5.101563-1.195312-11.628907 3.902344-14.570313l36.949219-21.335937c5.078125-2.964844 11.605469-1.214844 14.570313 3.90625 2.945312 5.097656 1.195312 11.625-3.902344 14.570312l-36.949219 21.332031c-1.664063.980469-3.5 1.429688-5.3125 1.429688zm0 0"/><path d="m330.667969 426.667969c-5.890625 0-10.667969-4.78125-10.667969-10.667969v-42.667969c0-5.886719 4.777344-10.664062 10.667969-10.664062 5.886719 0 10.664062 4.777343 10.664062 10.664062v42.667969c0 5.886719-4.777343 10.667969-10.664062 10.667969zm0 0"/><path d="m349.140625 416c-1.8125 0-3.648437-.449219-5.332031-1.429688l-36.949219-21.332031c-5.097656-2.945312-6.847656-9.472656-3.90625-14.570312 2.945313-5.121094 9.472656-6.871094 14.570313-3.90625l36.953124 21.335937c5.097657 2.941406 6.847657 9.46875 3.902344 14.570313-1.964844 3.410156-5.546875 5.332031-9.238281 5.332031zm0 0"/><path d="m312.191406 416c-3.691406 0-7.273437-1.921875-9.257812-5.332031-2.945313-5.101563-1.195313-11.628907 3.902344-14.570313l36.949218-21.335937c5.058594-2.964844 11.605469-1.214844 14.570313 3.90625 2.945312 5.097656 1.195312 11.625-3.902344 14.570312l-36.949219 21.332031c-1.664062.980469-3.5 1.429688-5.3125 1.429688zm0 0"/><path d="m394.667969 405.332031c-5.890625 0-10.667969-4.777343-10.667969-10.664062 0-5.890625 4.777344-10.667969 10.667969-10.667969 52.925781 0 96-43.070312 96-96s-43.074219-96-96-96c-9.34375 0-19.074219 1.707031-29.78125 5.246094-5.292969 1.707031-10.988281-.871094-13.164063-5.972656-21.78125-51.390626-71.914062-84.605469-127.722656-84.605469-69.695312 0-128.789062 52.136719-137.449219 121.277343-.554687 4.417969-3.777343 8-8.066406 9.046876-33.664063 8.128906-57.152344 37.886718-57.152344 72.339843 0 41.175781 33.496094 74.667969 74.667969 74.667969 5.886719 0 10.667969 4.777344 10.667969 10.667969 0 5.886719-4.78125 10.664062-10.667969 10.664062-52.929688 0-96-43.070312-96-96 0-41.898437 26.964844-78.378906 66.410156-91.113281 13.035156-76.246094 79.550782-132.886719 157.589844-132.886719 61.207031 0 116.480469 34.605469 143.402344 88.941407 9.449218-2.410157 18.433594-3.605469 27.265625-3.605469 64.703125 0 117.332031 52.628906 117.332031 117.332031s-52.628906 117.332031-117.332031 117.332031zm0 0"/></svg>