<svg height="512pt" viewBox="0 -11 512 512" width="512pt" xmlns="http://www.w3.org/2000/svg"><path d="m362.667969 0c-17.453125 0-34.859375 3.15625-51.691407 9.367188-4.183593 1.554687-6.976562 5.542968-6.976562 10.003906 0 4.457031 2.773438 8.449218 6.953125 10.003906 50.070313 18.519531 83.714844 66.710938 83.714844 119.957031 0 6.378907-.46875 12.78125-1.386719 19.050781-.597656 3.992188 1.085938 7.957032 4.371094 10.261719l76.183594 54.039063c1.855468 1.320312 4.007812 1.960937 6.164062 1.960937 2.410156 0 4.820312-.808593 6.785156-2.429687 17.664063-14.550782 25.214844-39.339844 25.214844-82.882813 0-82.34375-67.007812-149.332031-149.332031-149.332031zm0 0" fill="#b0bec5"/><path d="m394.667969 170.667969c-8.8125 0-17.816407 1.195312-27.265625 3.605469-26.921875-54.335938-82.195313-88.941407-143.402344-88.941407-78.039062 0-144.554688 56.640625-157.589844 132.886719-39.445312 12.734375-66.410156 49.214844-66.410156 91.113281 0 52.929688 43.070312 96 96 96h298.667969c64.679687 0 117.332031-52.628906 117.332031-117.332031s-52.652344-117.332031-117.332031-117.332031zm0 0" fill="#bbdefb"/><path d="m298.625 362.667969c-17.089844 0-26.113281-7.210938-33.34375-12.992188-6.039062-4.84375-10.410156-8.34375-20.011719-8.34375-9.578125 0-13.71875 3.308594-19.988281 8.320313-7.253906 5.804687-16.257812 13.015625-33.324219 13.015625-17.066406 0-26.070312-7.210938-33.300781-12.992188-6.273438-5.035156-10.410156-8.34375-19.988281-8.34375-5.890625 0-10.667969-4.777343-10.667969-10.664062 0-5.890625 4.777344-10.667969 10.667969-10.667969 17.066406 0 26.089843 7.210938 33.320312 13.011719 6.25 5.015625 10.390625 8.320312 19.96875 8.320312s13.738281-3.304687 20.011719-8.339843c7.253906-5.78125 16.253906-12.992188 33.320312-12.992188 17.089844 0 26.113282 7.210938 33.34375 12.992188 6.039063 4.84375 10.414063 8.339843 20.011719 8.339843 9.601563 0 13.972657-3.496093 20.011719-8.339843 7.253906-5.78125 16.277344-12.992188 33.34375-12.992188 5.886719 0 10.667969 4.777344 10.667969 10.667969 0 5.886719-4.78125 10.664062-10.667969 10.664062-9.601562 0-13.972656 3.5-20.011719 8.34375-7.253906 5.78125-16.277343 12.992188-33.363281 12.992188zm0 0"/><path d="m298.625 426.667969c-17.089844 0-26.113281-7.210938-33.34375-12.992188-6.039062-4.84375-10.410156-8.34375-20.011719-8.34375-9.578125 0-13.71875 3.308594-19.988281 8.320313-7.253906 5.804687-16.257812 13.015625-33.324219 13.015625-17.066406 0-26.070312-7.210938-33.300781-12.992188-6.273438-5.035156-10.410156-8.34375-19.988281-8.34375-5.890625 0-10.667969-4.777343-10.667969-10.664062 0-5.890625 4.777344-10.667969 10.667969-10.667969 17.066406 0 26.089843 7.210938 33.320312 13.011719 6.25 5.015625 10.390625 8.320312 19.96875 8.320312s13.738281-3.304687 20.011719-8.339843c7.253906-5.78125 16.253906-12.992188 33.320312-12.992188 17.089844 0 26.113282 7.210938 33.34375 12.992188 6.039063 4.84375 10.414063 8.339843 20.011719 8.339843 9.601563 0 13.972657-3.496093 20.011719-8.339843 7.253906-5.78125 16.277344-12.992188 33.34375-12.992188 5.886719 0 10.667969 4.777344 10.667969 10.667969 0 5.886719-4.78125 10.664062-10.667969 10.664062-9.601562 0-13.972656 3.5-20.011719 8.34375-7.253906 5.78125-16.277343 12.992188-33.363281 12.992188zm0 0"/><path d="m298.625 490.667969c-17.089844 0-26.113281-7.210938-33.34375-12.992188-6.039062-4.84375-10.410156-8.34375-20.011719-8.34375-9.578125 0-13.71875 3.308594-19.988281 8.320313-7.253906 5.804687-16.257812 13.015625-33.324219 13.015625-17.066406 0-26.070312-7.210938-33.300781-12.992188-6.273438-5.035156-10.410156-8.34375-19.988281-8.34375-5.890625 0-10.667969-4.777343-10.667969-10.664062 0-5.890625 4.777344-10.667969 10.667969-10.667969 17.066406 0 26.089843 7.210938 33.320312 13.011719 6.25 5.015625 10.390625 8.320312 19.96875 8.320312s13.738281-3.304687 20.011719-8.339843c7.253906-5.78125 16.253906-12.992188 33.320312-12.992188 17.089844 0 26.113282 7.210938 33.34375 12.992188 6.039063 4.84375 10.414063 8.339843 20.011719 8.339843 9.601563 0 13.972657-3.496093 20.011719-8.339843 7.253906-5.78125 16.277344-12.992188 33.34375-12.992188 5.886719 0 10.667969 4.777344 10.667969 10.667969 0 5.886719-4.78125 10.664062-10.667969 10.664062-9.601562 0-13.972656 3.5-20.011719 8.34375-7.253906 5.78125-16.277343 12.992188-33.363281 12.992188zm0 0"/><path d="m480 234.667969c-3.070312 0-6.121094-1.324219-8.234375-3.882813-3.753906-4.546875-3.113281-11.265625 1.429687-15.019531 12.09375-9.941406 17.472657-30.421875 17.472657-66.433594 0-70.589843-57.410157-128-128-128-5.804688 0-11.605469.40625-17.367188 1.21875 43.199219 26.878907 70.699219 74.773438 70.699219 126.78125 0 7.425781-.535156 14.890625-1.644531 22.210938-.832031 5.824219-6.3125 9.769531-12.09375 8.980469-5.824219-.875-9.855469-6.292969-8.980469-12.117188.917969-6.292969 1.386719-12.695312 1.386719-19.074219 0-53.246093-33.644531-101.4375-83.714844-119.957031-4.179687-1.535156-6.953125-5.523438-6.953125-10.003906 0-4.480469 2.792969-8.449219 6.976562-10.003906 16.832032-6.210938 34.238282-9.367188 51.691407-9.367188 82.324219 0 149.332031 66.988281 149.332031 149.332031 0 43.542969-7.550781 68.332031-25.214844 82.902344-1.984375 1.621094-4.394531 2.433594-6.785156 2.433594zm0 0"/><path d="m394.667969 405.332031c-5.890625 0-10.667969-4.777343-10.667969-10.664062 0-5.890625 4.777344-10.667969 10.667969-10.667969 52.925781 0 96-43.070312 96-96s-43.074219-96-96-96c-9.324219 0-19.074219 1.707031-29.78125 5.246094-5.269531 1.773437-10.988281-.871094-13.144531-5.972656-21.800782-51.390626-71.933594-84.605469-127.742188-84.605469-69.695312 0-128.789062 52.136719-137.449219 121.277343-.535156 4.417969-3.777343 8-8.085937 9.046876-33.621094 8.128906-57.132813 37.886718-57.132813 72.339843 0 41.175781 33.496094 74.667969 74.667969 74.667969 5.886719 0 10.667969 4.777344 10.667969 10.667969 0 5.886719-4.78125 10.664062-10.667969 10.664062-52.929688 0-96-43.070312-96-96 0-41.898437 26.964844-78.378906 66.410156-91.113281 13.035156-76.246094 79.550782-132.886719 157.589844-132.886719 61.207031 0 116.480469 34.605469 143.402344 88.941407 9.449218-2.410157 18.453125-3.605469 27.265625-3.605469 64.679687 0 117.332031 52.628906 117.332031 117.332031s-52.652344 117.332031-117.332031 117.332031zm0 0"/></svg>